# xmcd CD database file
#
# Track frame offsets:
#	150
#	17045
#	39128
#	60836
#	76921
#	96445
#	116184
#	135148
#	158532
#	178586
#	200084
#
# Disc length: 2993 seconds
#
# Revision: 0
# Processed by: cddbd v1.5.2PL0 Copyright (c) Steve Scherf et al.
# Submitted via: jetAudio 7
#
DISCID=7e0baf0b
DTITLE=朱蕾 - 巴黎天空 Hebrew heaven
DYEAR=1900
DGENRE=장르 없음
TTITLE0=巴黎天空
TTITLE1=蒙古小調
TTITLE2=春之祭
TTITLE3=秋之舞
TTITLE4=筝鳴
TTITLE5=情陷都柏林
TTITLE6=希伯來的天堂
TTITLE7=妝臺秋思遠
TTITLE8=沙之下
TTITLE9=桂之南
TTITLE10=靈水湖
EXTD=
EXTT0=
EXTT1=
EXTT2=
EXTT3=
EXTT4=
EXTT5=
EXTT6=
EXTT7=
EXTT8=
EXTT9=
EXTT10=
PLAYORDER=
